<svg width="73" height="52" viewBox="0 0 73 52" fill="none" xmlns="http://www.w3.org/2000/svg">
<path d="M57.8532 36.3703C51.6269 32.4734 44.6799 31.0878 37.5023 30.9146C37.1564 30.9146 36.9834 30.828 36.3781 30.9146C28.5087 31.0012 21.2158 32.3868 14.6436 36.2837C14.6436 36.3703 14.6436 36.4569 14.6436 36.5435C14.73 36.5435 14.903 36.6301 14.9895 36.6301C16.3731 36.3703 17.9297 36.1971 19.2268 35.6775C22.167 34.4651 25.1073 33.5126 28.2204 32.993C32.6308 32.2136 37.1276 32.0404 41.5667 32.4734C46.0635 32.9064 50.4738 33.8589 54.6536 35.5909C55.6913 36.0239 56.3831 36.5435 57.4208 36.9765C57.5938 37.0631 57.9397 37.2363 58.0262 36.9765C58.2856 36.4569 57.8532 36.3703 57.8532 36.3703Z" fill="#F1832E"/>
<path d="M13.4328 15.9907C12.0491 16.1639 10.752 16.2505 9.36834 16.4236C9.36834 16.3371 9.28186 16.2505 9.28186 16.1639C9.8872 15.8175 10.579 15.4711 11.1844 15.2113C16.373 12.7865 21.4751 10.3617 26.6926 7.93697C29.4598 6.63798 32.3136 5.339 35.0808 4.04002C35.3403 3.86682 35.4267 3.86682 35.6862 3.86682C35.5132 3.78022 36.4645 3.60703 36.378 3.52043C35.9456 3.26063 35.1673 3.00083 34.7349 2.82764C28.941 5.772 22.3399 8.62976 16.2865 11.0545C17.0648 9.75554 17.4107 8.45656 17.4107 8.19676C17.8431 6.26272 17.5837 4.35755 16.7189 2.62557C15.9406 1.23999 14.8164 0.200806 13.0868 0.200806C11.2708 0.200806 10.1466 1.23999 9.36834 2.79877C8.59004 4.35755 8.41709 6.08953 8.67652 7.8215C8.93595 9.29368 9.54129 10.6793 10.8384 11.6318C11.2708 11.9782 11.8762 12.1514 12.4815 12.4978C12.0491 12.671 11.7897 12.9308 11.4438 13.0174C8.93595 14.0566 6.34164 15.0958 3.83381 16.135C2.88257 16.4814 1.93132 16.9144 0.980072 17.2608C0.807118 17.3474 0.720641 17.6072 0.547687 17.7804C0.691816 17.8958 0.86477 18.069 1.1242 18.1556C1.47011 18.2422 1.81602 18.2422 2.07545 18.2422C5.10214 18.3288 8.12883 18.4154 11.1555 18.502C11.9338 18.502 12.2797 18.8484 12.1933 19.6278C12.1068 21.7062 12.0203 23.6979 12.1933 25.7763C12.2797 26.9887 11.7609 27.9413 11.1555 28.9805C8.90713 32.7042 6.65873 36.5146 4.58328 40.3538C3.11317 43.2115 1.81602 46.2425 0.432385 49.1869C0.259431 49.5333 0.172954 49.9663 0 50.3992C0.086477 50.3992 0.172954 50.4858 0.259431 50.4858C4.4968 44.3373 8.30179 37.9002 11.9626 31.4052C12.0491 31.4052 12.1356 31.4918 12.2221 31.4918C12.3086 36.7744 12.4815 42.0569 12.568 47.3683C12.6545 47.3683 12.8274 47.3683 12.9139 47.3683C13.0868 46.7621 13.2598 46.1559 13.3463 45.5497C13.6057 44.4239 13.8651 43.2981 13.9516 42.1724C14.0381 40.0074 14.557 23.3516 14.9893 17.2896C15.1623 15.6443 15.0758 15.8175 13.4328 15.9907Z" fill="#7570B2"/>
<path d="M37.2426 2.88544C38.1938 2.36585 39.9234 1.49986 40.7881 0.547272C40.7016 0.460673 40.7016 0.374074 40.6152 0.287476C40.3557 0.374074 40.0963 0.460673 39.8369 0.547272C38.7992 1.06686 37.7614 1.49986 36.7237 1.93285C36.5508 2.01945 36.0319 2.19265 35.7725 2.19265C35.8589 2.19265 36.0319 2.36585 36.1184 2.36585C36.6372 2.62564 36.6372 2.71224 37.2426 2.88544Z" fill="#7570B2"/>
<path d="M72.6405 48.1477C71.6892 46.1559 70.6515 44.2507 69.7003 42.259C67.5383 37.929 65.0305 33.7723 62.2632 29.6733C61.0526 27.8547 59.8419 26.1227 60.0148 23.7846C60.1878 22.0526 59.9284 20.234 59.8419 18.4154C59.8419 18.1556 60.1013 17.7226 60.2743 17.7226C62.2632 17.4628 64.2522 17.2896 66.2412 17.1164C67.7113 17.0298 69.1814 17.0298 70.6515 17.0298C70.9974 17.0298 71.2568 16.8567 71.6028 16.7701C71.6028 16.6835 71.6028 16.5969 71.6028 16.4237C67.9707 15.0381 64.3387 13.6525 60.6778 12.3535C61.4561 12.0937 62.3209 12.0071 63.0127 11.6607C64.8287 10.4483 65.607 8.62976 65.607 6.46479C65.607 5.9452 65.5205 2.39465 63.5316 0.922468C62.0615 -0.376514 59.986 -0.289915 58.6024 1.09567C56.8728 2.74104 56.5269 4.81941 56.6999 6.98439C56.7864 8.80296 57.5647 10.3617 59.0348 11.6607C51.8572 9.06276 44.7372 6.37819 37.992 3.08744C37.992 3.08744 31.3333 -0.0301187 30.9874 0.402875L30.8145 0.662672C30.8145 1.09567 36.5219 3.95343 36.6949 4.04003C39.1162 5.07921 41.5376 6.0318 43.959 7.07098C46.2938 8.11017 48.7152 9.06276 51.0501 10.1019C54.4227 11.5741 57.7953 13.1329 61.1679 14.6051C61.6003 14.7783 62.0326 15.0381 62.465 15.2979L62.3785 15.4711C62.2056 15.4711 62.0326 15.4711 61.8597 15.4711C60.4761 15.3845 59.1789 15.2113 57.7953 15.1247C57.2764 15.0381 56.844 15.1247 56.9305 15.8175C57.5358 21.966 58.833 43.4714 59.7842 46.0693C59.8707 46.1559 59.9572 46.3291 60.0437 46.4157C60.1301 46.4157 60.1301 46.4157 60.2166 46.4157V30.2795C60.7355 31.1455 61.2543 31.8382 61.6867 32.6176C63.2433 35.0424 64.7134 37.4672 66.27 39.8919C68.086 42.7497 69.9885 45.5209 71.891 48.292C72.1504 48.6384 72.4099 48.8982 72.7558 49.2446C72.8423 49.2446 72.8423 49.158 72.9287 49.158C72.8999 48.8405 72.8134 48.4941 72.6405 48.1477Z" fill="#04A24B"/>
<path d="M38.021 35.3311C38.7993 38.1888 39.5776 40.96 40.3559 43.9043C40.0964 43.8177 40.0099 43.8177 39.9235 43.8177C38.2804 42.5188 36.7238 42.8652 35.1672 43.9909C33.0053 45.5497 31.7082 47.7147 30.411 49.8797C30.1516 50.3127 29.9786 50.7457 29.8057 51.1786C29.8921 51.2652 29.9786 51.2652 30.0651 51.3518C30.584 50.7457 31.0163 50.1395 31.5352 49.5333C32.7459 48.2343 33.9566 46.8487 35.2537 45.6363C36.6373 44.5105 38.3669 44.5971 39.7505 45.7229C41.0477 46.7621 41.826 48.2343 42.3448 49.7065C42.6907 50.7457 43.3825 51.3518 44.3338 51.8714C42.6907 46.2425 40.5288 40.7579 38.2804 35.3022C38.2804 35.2445 38.1075 35.2445 38.021 35.3311Z" fill="#F1832E"/>
<path d="M41.3074 24.8238C41.3074 28.0279 39.1455 30.7125 36.5512 30.7125C33.9568 30.7125 31.7949 28.1145 31.7949 24.8238C31.7949 21.6196 33.9568 18.9351 36.5512 18.9351C39.1455 18.9351 41.3074 21.533 41.3074 24.8238Z" fill="#F1832E"/>
</svg>
